<svg width="342" height="158" viewBox="0 0 342 158" fill="none" xmlns="http://www.w3.org/2000/svg">
<path d="M60.4207 0C81.3681 0 98.4601 17.092 98.4601 38.0394V43.6939C98.4601 64.7698 81.3681 81.7333 60.4207 81.7333H50.9109C29.9635 81.7333 13 64.7698 13 43.6939V38.0394C13 17.092 29.9635 0 50.9109 0H60.4207ZM84.3239 41.8947V40.4811C84.3239 25.1883 72.6293 12.8512 58.1075 12.8512H53.0956C38.7023 12.8512 27.0078 25.1883 27.0078 40.4811V41.8947C27.0078 57.1876 38.7023 69.5247 53.0956 69.5247H58.1075C72.6293 69.5247 84.3239 57.1876 84.3239 41.8947Z" fill="#0044EB"/>
<path d="M193.558 67.5974C194.586 67.5974 195.485 68.497 195.485 69.6536V79.6775C195.485 80.7056 194.586 81.6052 193.558 81.6052H129.945C118.25 81.6052 108.74 71.3243 108.74 58.4731V2.05658C108.74 0.899973 109.511 0.128906 110.539 0.128906H120.82C121.848 0.128906 122.748 0.899973 122.748 2.05658V56.931C122.748 62.8425 127.117 67.5974 132.515 67.5974H193.558Z" fill="#0044EB"/>
<path d="M253.188 0C274.136 0 291.228 17.092 291.228 38.0394V43.6939C291.228 64.7698 274.136 81.7333 253.188 81.7333H243.678C222.731 81.7333 205.768 64.7698 205.768 43.6939V38.0394C205.768 17.092 222.731 0 243.678 0H253.188ZM277.091 41.8947V40.4811C277.091 25.1883 265.397 12.8512 250.875 12.8512H245.863C231.47 12.8512 219.775 25.1883 219.775 40.4811V41.8947C219.775 57.1876 231.47 69.5247 245.863 69.5247H250.875C265.397 69.5247 277.091 57.1876 277.091 41.8947Z" fill="#0044EB"/>
<circle cx="311" cy="70" r="10.5" fill="white" stroke="#0044EB" stroke-width="3"/>
<path d="M49.9869 106C58.486 106 65.3325 113.476 65.3325 122.683V139.367C65.3325 148.574 58.486 155.972 50.0656 155.972H14.1017C13.4722 155.972 13 155.499 13 154.791V107.259C13 106.63 13.4722 106.079 14.1017 106.079L49.9869 106ZM56.676 139.367V122.762C56.676 118.277 53.3708 114.657 49.2786 114.657H22.6795C22.05 114.657 21.5778 115.207 21.5778 115.837V146.292C21.5778 146.922 22.05 147.473 22.6795 147.473H49.2786C53.3708 147.473 56.676 143.853 56.676 139.367Z" fill="#0044EB"/>
<path d="M79.105 106C79.6558 106 80.2067 106.472 80.2067 107.18V154.713C80.2067 155.421 79.6558 155.893 79.105 155.893H72.6519C72.1011 155.893 71.6289 155.421 71.6289 154.713V107.18C71.6289 106.472 72.1011 106 72.6519 106H79.105Z" fill="#0044EB"/>
<path d="M138.756 129.451L138.834 132.756C138.834 145.663 128.368 156.05 115.541 156.05H109.717C96.8898 156.05 86.502 145.663 86.502 132.756V129.294C86.502 116.388 96.8898 106 109.796 106H114.596C115.383 106 116.013 106.63 116.013 107.417V112.374C116.013 113.161 115.383 113.791 114.596 113.791H111.055C102.241 113.791 95.0798 121.424 95.0798 130.789V131.655C95.0798 141.02 102.241 148.574 111.055 148.574H114.124C120.916 148.574 126.695 144.16 129.031 137.898C129.18 137.499 128.878 137.085 128.452 137.085H113.022C112.629 137.085 112.314 136.455 112.314 135.747V129.845C112.314 129.058 112.629 128.507 112.944 128.507H137.811C138.362 128.507 138.756 128.979 138.756 129.451Z" fill="#0044EB"/>
<path d="M152.605 106.079C153.156 106.079 153.707 106.551 153.707 107.259V154.791C153.707 155.499 153.156 155.972 152.605 155.972H146.152C145.601 155.972 145.129 155.499 145.129 154.791V107.259C145.129 106.551 145.601 106.079 146.152 106.079H152.605Z" fill="#0044EB"/>
<path d="M174.64 106C175.27 106 175.821 106.551 175.821 107.259V113.397C175.821 114.106 175.27 114.657 174.64 114.657H162.836C162.206 114.657 161.734 114.106 161.734 113.397V107.259C161.734 106.551 162.206 106 162.836 106H174.64ZM213.752 106C214.382 106 214.932 106.551 214.932 107.259V113.397C214.932 114.106 214.382 114.657 213.831 114.657H193.999C193.37 114.657 192.898 115.207 192.898 115.837V154.791C192.898 155.421 192.347 155.972 191.796 155.972H185.5C184.871 155.972 184.399 155.421 184.399 154.791V115.522C184.399 110.25 188.569 106 193.842 106H213.752Z" fill="#0044EB"/>
<path d="M282.495 154.858C282.731 155.409 282.416 155.96 281.865 155.96H273.995C273.208 155.96 272.5 155.409 272.185 154.622L259.201 120.311C257.942 117.006 255.03 114.802 251.725 114.802C248.262 114.802 245.272 117.006 244.012 120.39L231.342 154.622C231.028 155.409 230.319 155.96 229.532 155.96H221.899C221.427 155.96 221.112 155.331 221.269 154.858L236.93 116.77C240.55 107.956 250.308 103.313 259.358 107.641C263.214 109.451 266.205 113.071 267.857 117.321L282.495 154.858Z" fill="#0044EB"/>
<path d="M340.808 147.315C341.438 147.315 341.989 147.866 341.989 148.574V154.713C341.989 155.342 341.438 155.893 340.808 155.893H301.854C294.693 155.893 288.869 149.597 288.869 141.728V107.18C288.869 106.472 289.341 106 289.971 106H296.267C296.896 106 297.447 106.472 297.447 107.18V140.783C297.447 144.403 300.123 147.315 303.428 147.315H340.808Z" fill="#0044EB"/>
</svg>
